<svg width="45" height="45" viewBox="0 0 45 45" fill="none" xmlns="http://www.w3.org/2000/svg">
<path d="M37.5 23.0143C37.5 23.7262 36.971 24.3146 36.2846 24.4077L36.0938 24.4206L7.96875 24.4206C7.1921 24.4206 6.5625 23.791 6.5625 23.0143C6.5625 22.3024 7.09154 21.714 7.77793 21.6209L7.96875 21.6081L36.0938 21.6081C36.8704 21.6081 37.5 22.2377 37.5 23.0143Z" fill="white"/>
<path d="M20.3044 33.3136C20.8547 33.8615 20.8566 34.7519 20.3086 35.3023C19.8105 35.8026 19.0293 35.8497 18.4779 35.4424L18.3199 35.3066L6.97616 24.0116C6.47434 23.5119 6.42869 22.7279 6.83923 22.1766L6.97608 22.0186L18.3198 10.7218C18.8701 10.1737 19.7605 10.1756 20.3086 10.7259C20.8068 11.2262 20.8505 12.0075 20.4409 12.5572L20.3044 12.7146L9.96188 23.0156L20.3044 33.3136Z" fill="white"/>
</svg>
