<svg width="45" height="45" viewBox="0 0 45 45" fill="none" xmlns="http://www.w3.org/2000/svg">
<path d="M18 10.125C18 7.64297 20.018 5.625 22.5 5.625C24.982 5.625 27 7.64297 27 10.125V13.5H18V10.125ZM14.625 13.5H10.125C8.26172 13.5 6.75 15.0117 6.75 16.875V31.5C6.75 35.2266 9.77344 38.25 13.5 38.25H31.5C35.2266 38.25 38.25 35.2266 38.25 31.5V16.875C38.25 15.0117 36.7383 13.5 34.875 13.5H30.375V10.125C30.375 5.77266 26.8523 2.25 22.5 2.25C18.1477 2.25 14.625 5.77266 14.625 10.125V13.5ZM16.3125 16.875C17.2477 16.875 18 17.6273 18 18.5625C18 19.4977 17.2477 20.25 16.3125 20.25C15.3773 20.25 14.625 19.4977 14.625 18.5625C14.625 17.6273 15.3773 16.875 16.3125 16.875ZM27 18.5625C27 17.6273 27.7523 16.875 28.6875 16.875C29.6227 16.875 30.375 17.6273 30.375 18.5625C30.375 19.4977 29.6227 20.25 28.6875 20.25C27.7523 20.25 27 19.4977 27 18.5625Z" fill="#8E8C6F"/>
</svg>
