<svg width="45" height="45" viewBox="0 0 45 45" fill="none" xmlns="http://www.w3.org/2000/svg">
<path d="M24.0328 5.10471C23.168 4.30315 21.832 4.30315 20.9742 5.10471L5.22421 19.7297C4.54921 20.3625 4.32421 21.3399 4.66171 22.1977C4.99921 23.0555 5.82187 23.625 6.74999 23.625H7.87499V36C7.87499 38.4821 9.89296 40.5 12.375 40.5H32.625C35.107 40.5 37.125 38.4821 37.125 36V23.625H38.25C39.1781 23.625 40.0078 23.0555 40.3453 22.1977C40.6828 21.3399 40.4578 20.3555 39.7828 19.7297L24.0328 5.10471ZM21.375 27H23.625C25.4883 27 27 28.5117 27 30.375V37.125H18V30.375C18 28.5117 19.5117 27 21.375 27Z" fill="#8E8C6F"/>
</svg>
