<svg width="248" height="67" viewBox="0 0 248 67" fill="none" xmlns="http://www.w3.org/2000/svg">
<path d="M15.12 0V53.92C15.12 56.59 15.28 58.6 15.6 59.96C15.92 61.32 16.6 62.24 17.64 62.72C18.68 63.2 20.21 63.49 22.24 63.6V66.4H0.160004V63.6C2.29 63.49 3.89 63.2 4.96 62.72C6.03 62.24 6.75 61.36 7.12 60.08C7.49 58.8 7.68 56.93 7.68 54.48V20C7.68 17.12 7.64 14.71 7.56 12.76C7.48 10.81 7.36 9.49 7.2 8.8C6.93 7.57 6.31 6.75001 5.32 6.32001C4.33 5.89001 2.56 5.68001 0 5.68001V2.96001L15.12 0Z" fill="white"/>
<path d="M181.16 43.44V53.6C181.16 56.53 181.28 58.69 181.52 60.08C181.76 61.47 182.35 62.3599 183.28 62.7599C184.21 63.16 185.69 63.4399 187.72 63.5999V66.4H166.44V63.5999C168.52 63.4399 170.04 63.16 171 62.7599C171.96 62.3599 172.59 61.51 172.88 60.2C173.17 58.8899 173.32 56.91 173.32 54.24V44C173.32 40.96 173.28 38.41 173.2 36.36C173.12 34.31 172.97 32.93 172.76 32.24C172.49 30.85 171.96 29.97 171.16 29.6C170.36 29.23 168.73 29.04 166.28 29.04V26.24L179.32 23.2L180.36 31.2H180.76C183.16 28.48 185.68 26.47 188.32 25.16C190.96 23.85 193.88 23.2 197.08 23.2C200.44 23.2 203.28 23.89 205.6 25.28C207.92 26.67 209.51 28.61 210.36 31.12H210.68C212.65 28.61 215.07 26.67 217.92 25.28C220.77 23.89 223.77 23.2 226.92 23.2C229.43 23.2 231.71 23.61 233.76 24.44C235.81 25.27 237.37 26.4 238.44 27.84C239.4 29.07 240.08 30.68 240.48 32.68C240.88 34.68 241.08 37.41 241.08 40.88V53.6C241.08 56.53 241.21 58.6799 241.48 60.0399C241.75 61.3999 242.35 62.29 243.28 62.72C244.21 63.15 245.69 63.4399 247.72 63.5999V66.4H226.44V63.5999C228.47 63.4899 229.96 63.23 230.92 62.8C231.88 62.37 232.51 61.51 232.8 60.2C233.09 58.8899 233.24 56.91 233.24 54.24V44.16C233.24 38.03 232.55 33.73 231.16 31.28C229.77 28.83 227.35 27.6 223.88 27.6C221.59 27.6 219.4 28.25 217.32 29.56C215.24 30.87 213.61 32.61 212.44 34.8C212.07 35.49 211.79 36.19 211.6 36.88C211.41 37.57 211.28 38.41 211.2 39.4C211.12 40.39 211.08 41.73 211.08 43.44V53.6C211.08 56.53 211.21 58.6799 211.48 60.0399C211.75 61.3999 212.35 62.29 213.28 62.72C214.21 63.15 215.72 63.4399 217.8 63.5999V66.4H196.52V63.5999C198.55 63.4399 200.04 63.16 201 62.7599C201.96 62.3599 202.57 61.51 202.84 60.2C203.11 58.8899 203.24 56.91 203.24 54.24V44.16C203.24 40 202.95 36.72 202.36 34.32C201.77 31.92 200.81 30.2 199.48 29.16C198.15 28.12 196.33 27.6 194.04 27.6C191.75 27.6 189.45 28.25 187.32 29.56C185.19 30.87 183.59 32.61 182.52 34.8C182.15 35.49 181.87 36.19 181.68 36.88C181.49 37.57 181.36 38.41 181.28 39.4C181.2 40.39 181.16 41.73 181.16 43.44Z" fill="white"/>
<path d="M141.6 29.4C149.87 29.4 156.6 36.13 156.6 44.4C156.6 52.67 149.87 59.4 141.6 59.4H95.05C86.78 59.4 80.05 52.67 80.05 44.4C80.05 36.13 86.78 29.4 95.05 29.4H141.6ZM141.6 22.4H95.05C82.9 22.4 73.05 32.25 73.05 44.4C73.05 56.55 82.9 66.4 95.05 66.4H141.6C153.75 66.4 163.6 56.55 163.6 44.4C163.6 32.25 153.75 22.4 141.6 22.4Z" fill="white"/>
<path d="M48.3 29.4C56.57 29.4 63.3 36.13 63.3 44.4C63.3 52.67 56.57 59.4 48.3 59.4H47.05C38.78 59.4 32.05 52.67 32.05 44.4C32.05 36.13 38.78 29.4 47.05 29.4H48.3ZM48.3 22.4H47.05C34.9 22.4 25.05 32.25 25.05 44.4C25.05 56.55 34.9 66.4 47.05 66.4H48.3C60.45 66.4 70.3 56.55 70.3 44.4C70.3 32.25 60.45 22.4 48.3 22.4Z" fill="white"/>
</svg>
